<svg id="Calque_1" data-name="Calque 1" xmlns="http://www.w3.org/2000/svg" viewBox="0 0 1887.57 465.96"><defs><style>.cls-1{fill:#e9f5f8;stroke:#000;stroke-miterlimit:10;}.cls-2{font-size:12px;font-family:MyriadPro-Regular, Myriad Pro;}.cls-12,.cls-2{fill:#1d1d1b;}.cls-3{letter-spacing:0em;}.cls-4{letter-spacing:0em;}.cls-5{letter-spacing:-0.03em;}.cls-6{letter-spacing:-0.01em;}.cls-7{letter-spacing:-0.03em;}.cls-8{letter-spacing:0em;}.cls-9{letter-spacing:-0.01em;}.cls-10{letter-spacing:-0.01em;}.cls-11{letter-spacing:-0.01em;}.cls-13{letter-spacing:0em;}.cls-14{letter-spacing:0em;}.cls-15{letter-spacing:0em;}.cls-16{letter-spacing:0.03em;}.cls-17{letter-spacing:0em;}.cls-18{letter-spacing:0.01em;}.cls-19{letter-spacing:0.02em;}.cls-20{letter-spacing:-0.01em;}.cls-21{letter-spacing:0.01em;}.cls-22{letter-spacing:0.02em;}.cls-23{letter-spacing:-0.02em;}.cls-24{letter-spacing:-0.09em;}.cls-25{letter-spacing:-0.01em;}.cls-26{letter-spacing:-0.01em;}.cls-27{letter-spacing:0.02em;}.cls-28{letter-spacing:-0.03em;}.cls-29{letter-spacing:-0.01em;}.cls-30{letter-spacing:0em;}.cls-31{letter-spacing:0em;}.cls-32{letter-spacing:-0.01em;}.cls-33{letter-spacing:-0.03em;}.cls-34{letter-spacing:-0.01em;}.cls-35{letter-spacing:0em;}.cls-36{letter-spacing:0em;}</style></defs><path class="cls-1" d="M148.75,334.26H54.43c-6.27,0-10.54-5.07-9.56-11.34l8.38-53.32a13.77,13.77,0,0,1,13.12-11.34h94.32c6.26,0,10.54,5.08,9.56,11.34l-8.38,53.32A13.77,13.77,0,0,1,148.75,334.26Z" transform="translate(-44.23 -26.19)"/><text class="cls-2" transform="translate(37.8 269.01)"><tspan class="cls-3">A</tspan><tspan class="cls-4" x="7.31" y="0">pp_</tspan><tspan class="cls-5" x="26.96" y="0">F</tspan><tspan x="32.44" y="0">older</tspan></text><path class="cls-1" d="M456.16,333.2H361.83c-6.26,0-10.54-5.08-9.55-11.34l8.37-53.32a13.78,13.78,0,0,1,13.12-11.34H468.1c6.26,0,10.54,5.07,9.55,11.34l-8.37,53.32A13.79,13.79,0,0,1,456.16,333.2Z" transform="translate(-44.23 -26.19)"/><path class="cls-1" d="M778.55,176.6H684.22c-6.26,0-10.54-5.07-9.55-11.33L683,111.94a13.79,13.79,0,0,1,13.12-11.34h94.33c6.26,0,10.54,5.08,9.55,11.34l-8.37,53.33A13.78,13.78,0,0,1,778.55,176.6Z" transform="translate(-44.23 -26.19)"/><path class="cls-1" d="M762.37,463.84H668c-6.26,0-10.54-5.08-9.55-11.34l8.37-53.33A13.78,13.78,0,0,1,680,387.84h94.33c6.26,0,10.54,5.07,9.55,11.33l-8.37,53.33A13.79,13.79,0,0,1,762.37,463.84Z" transform="translate(-44.23 -26.19)"/><text class="cls-2" transform="translate(16.12 322.88)">..\<tspan class="cls-3" x="9.06" y="0">A</tspan><tspan class="cls-4" x="16.37" y="0">pp_</tspan><tspan class="cls-6" x="36.02" y="0">f</tspan><tspan x="39.37" y="0">older\</tspan></text><text class="cls-2" transform="translate(353.6 268.28)"><tspan class="cls-7">P</tspan><tspan x="6.07" y="0">ages</tspan></text><text class="cls-2" transform="translate(665.2 112.22)"><tspan class="cls-8">R</tspan><tspan x="6.5" y="0">essou</tspan><tspan class="cls-9" x="35.22" y="0">r</tspan><tspan class="cls-10" x="39.02" y="0">c</tspan><tspan x="44.33" y="0">es</tspan></text><text class="cls-2" transform="translate(665.32 402.6)"><tspan class="cls-11">L</tspan><tspan x="5.5" y="0">ogs</tspan></text><path class="cls-1" d="M990.28,102.69H896c-6.26,0-10.54-5.08-9.56-11.34L894.78,38A13.77,13.77,0,0,1,907.9,26.69h94.32c6.26,0,10.54,5.07,9.56,11.33l-8.38,53.33A13.78,13.78,0,0,1,990.28,102.69Z" transform="translate(-44.23 -26.19)"/><path class="cls-1" d="M974.28,210.76H880c-6.26,0-10.54-5.08-9.56-11.34l8.38-53.32a13.78,13.78,0,0,1,13.12-11.34h94.32c6.26,0,10.54,5.08,9.56,11.34l-8.38,53.32A13.78,13.78,0,0,1,974.28,210.76Z" transform="translate(-44.23 -26.19)"/><path class="cls-12" d="M162.62,307.23c24.44,5.41,49.57,6.71,74.53,5.77,25.19-.95,50.23-4.08,75.22-7.25,14.12-1.79,28.23-3.6,42.37-5.07a2.57,2.57,0,0,0,2.5-2.5,2.51,2.51,0,0,0-2.5-2.5c-25,2.6-49.93,6.28-74.95,9-24.72,2.69-49.64,4.47-74.51,3.18A251.26,251.26,0,0,1,164,302.41c-3.13-.7-4.47,4.12-1.33,4.82Z" transform="translate(-44.23 -26.19)"/><text class="cls-2" transform="translate(175.24 263.49)">ind<tspan class="cls-13" x="16.24" y="0">e</tspan><tspan class="cls-14" x="22.21" y="0">x.</tspan><tspan class="cls-15" x="30.25" y="0">h</tspan><tspan x="36.86" y="0">tml</tspan></text><path d="M471.83,296.67c5.17,4.33,11.83,4.93,18.32,5.1,7.92.2,15.85.33,23.77.45q23.88.34,47.77.29,13.42,0,26.86-.21c3.22,0,3.23-5,0-5q-46.51.58-93-.41c-3.75-.08-7.54,0-11.27-.47-3.12-.37-6.42-1.23-8.87-3.28a2.56,2.56,0,0,0-3.54,0,2.51,2.51,0,0,0,0,3.53Z" transform="translate(-44.23 -26.19)"/><path d="M589.79,298.15a830.14,830.14,0,0,1,.56-94.91c.46-7.22.85-14.48,1.81-21.65.81-6.06,2.12-12.24,4.8-17.76a33.2,33.2,0,0,1,11.68-13.4,49.87,49.87,0,0,1,16.65-6.74c16.15-3.62,32.89-.91,49.24-2.59a2.57,2.57,0,0,0,2.5-2.5,2.53,2.53,0,0,0-2.5-2.5c-15.43,1.58-31-.54-46.4,2-12.52,2.05-25,7.45-32.47,18.09-7.84,11.14-8.76,25.52-9.73,38.65q-1.78,24.3-2.15,48.67-.39,27.35,1,54.68c.16,3.2,5.16,3.22,5,0Z" transform="translate(-44.23 -26.19)"/><path d="M584,300q-.15,39.27,2.88,78.45c.85,10.85,1.68,22.08,6.53,32,4.74,9.73,13.56,16.26,23.69,19.61,13.31,4.4,27.55,2.95,41.22,1.47a2.58,2.58,0,0,0,2.5-2.5,2.51,2.51,0,0,0-2.5-2.5c-11.92,1.29-24.29,2.72-36.09-.19C612.77,424,604,418.83,599,410.19c-5.13-8.88-6.07-19.52-6.87-29.54q-1.51-18.94-2.29-37.95-.85-21.34-.77-42.73c0-3.22-5-3.22-5,0Z" transform="translate(-44.23 -26.19)"/><text class="cls-2" transform="translate(455.32 243.23)">List of e<tspan class="cls-9" x="38.39" y="0">v</tspan><tspan x="44.04" y="0">e</tspan><tspan class="cls-16" x="50.05" y="0">r</tspan><tspan x="54.28" y="0">y </tspan><tspan x="0" y="14.4">.</tspan><tspan class="cls-17" x="2.48" y="14.4">h</tspan><tspan x="9.1" y="14.4">tml files</tspan></text><text class="cls-2" transform="translate(874.74 38.74)"><tspan class="cls-3">S</tspan><tspan class="cls-18" x="5.88" y="0">t</tspan><tspan x="9.96" y="0">ylesheets</tspan></text><text class="cls-2" transform="translate(875.4 141.83)">media</text><path d="M794.09,144.06c9.45-2.93,16.59-10.07,21.55-18.41,5.36-9,8.06-19.05,10.73-29.07,2.79-10.52,5.72-21.34,12.3-30.22A45.09,45.09,0,0,1,860.24,51a45.89,45.89,0,0,1,30.06-.12,2.53,2.53,0,0,0,3.08-1.74,2.56,2.56,0,0,0-1.75-3.08c-18.14-6.4-39.65-.95-53,12.74-7.65,7.84-11.82,18.1-14.86,28.46-3,10.15-5,20.71-9.49,30.33-4.41,9.38-11.2,18.46-21.5,21.66-3.06.95-1.75,5.78,1.33,4.82Z" transform="translate(-44.23 -26.19)"/><path d="M1007.55,65.4h65c3.22,0,3.23-5,0-5h-65c-3.21,0-3.22,5,0,5Z" transform="translate(-44.23 -26.19)"/><path d="M793.21,141.84c5.08,9.47,10.69,19.48,20.09,25.3,5.5,3.4,12.06,4.87,18.27,6.4,6.62,1.62,13.32,2.94,20.06,4a228.58,228.58,0,0,0,22.92,2.28c3.21.16,3.21-4.84,0-5a218.69,218.69,0,0,1-38.37-5.28q-4.81-1.1-9.56-2.42a45.06,45.06,0,0,1-8.81-3.13,34.11,34.11,0,0,1-11.13-9.67,104.26,104.26,0,0,1-9.16-15c-1.52-2.84-5.84-.32-4.31,2.52Z" transform="translate(-44.23 -26.19)"/><path d="M777.55,433.4h79c3.22,0,3.23-5,0-5h-79c-3.21,0-3.22,5,0,5Z" transform="translate(-44.23 -26.19)"/><text class="cls-2" transform="translate(1042.32 34.51)">List of e<tspan class="cls-9" x="38.39" y="0">v</tspan><tspan x="44.04" y="0">e</tspan><tspan class="cls-16" x="50.05" y="0">r</tspan><tspan x="54.27" y="0">y .css</tspan></text><text class="cls-2" transform="translate(833.31 408.57)">list of e<tspan class="cls-9" x="35.56" y="0">v</tspan><tspan class="cls-4" x="41.21" y="0">e</tspan><tspan class="cls-19" x="47.22" y="0">r</tspan><tspan x="51.44" y="0">y logs and st</tspan><tspan class="cls-15" x="113.54" y="0">a</tspan><tspan class="cls-4" x="119.28" y="0">tistics</tspan></text><path class="cls-1" d="M1215.66,147.41h-94.32c-6.27,0-10.54-5.08-9.56-11.34l8.38-53.33a13.76,13.76,0,0,1,13.12-11.33h94.32c6.26,0,10.54,5.07,9.56,11.33l-8.38,53.33A13.78,13.78,0,0,1,1215.66,147.41Z" transform="translate(-44.23 -26.19)"/><path class="cls-1" d="M1208.8,270.36h-94.33c-6.26,0-10.54-5.08-9.55-11.34l8.37-53.32a13.78,13.78,0,0,1,13.12-11.34h94.33c6.26,0,10.54,5.07,9.55,11.34L1221.92,259A13.79,13.79,0,0,1,1208.8,270.36Z" transform="translate(-44.23 -26.19)"/><path d="M1070.86,48.15V78c0,3.22,5,3.22,5,0V48.15c0-3.22-5-3.23-5,0Z" transform="translate(-44.23 -26.19)"/><path d="M854.86,421.17v23.74c0,3.22,5,3.22,5,0V421.17c0-3.22-5-3.23-5,0Z" transform="translate(-44.23 -26.19)"/><text class="cls-2" transform="translate(1100.63 84.74)"><tspan class="cls-9">v</tspan><tspan x="5.65" y="0">oi</tspan><tspan class="cls-20" x="15.05" y="0">c</tspan><tspan x="20.35" y="0">es .mp3</tspan></text><text class="cls-2" transform="translate(1094.62 208.34)">pi<tspan class="cls-21" x="9.64" y="0">c</tspan><tspan x="15.17" y="0">tu</tspan><tspan class="cls-9" x="25.75" y="0">r</tspan><tspan x="29.56" y="0">es .png</tspan></text><path class="cls-12" d="M991.25,178.89c17.51-9.08,32.38-22.25,47.24-35,14.45-12.41,29.37-24.65,46.91-32.48a79.27,79.27,0,0,1,30.29-7.24c3.21-.08,3.22-5.08,0-5-19.5.48-37.65,8.86-53.53,19.67-16.33,11.12-30.52,24.94-45.89,37.29a167.06,167.06,0,0,1-27.54,18.47c-2.86,1.48-.33,5.8,2.52,4.32Z" transform="translate(-44.23 -26.19)"/><path class="cls-12" d="M988.06,177.9c9,3.29,17.91,6.53,26.84,9.87a87.71,87.71,0,0,1,12.11,5.35,97.91,97.91,0,0,1,11.06,7.31c13.15,9.83,25.82,20.59,40.93,27.35a67.06,67.06,0,0,0,26.51,6.28c3.21,0,3.22-5,0-5-16.06-.21-30.57-8-43.48-16.89-6.78-4.69-13.23-9.82-19.79-14.81a115.1,115.1,0,0,0-10.92-7.54,81.9,81.9,0,0,0-12-5.71c-9.88-3.88-19.92-7.37-29.88-11a2.52,2.52,0,0,0-3.08,1.74,2.56,2.56,0,0,0,1.75,3.08Z" transform="translate(-44.23 -26.19)"/><path d="M1233.47,111.91h65c3.22,0,3.22-5,0-5h-65c-3.22,0-3.22,5,0,5Z" transform="translate(-44.23 -26.19)"/><path d="M1296.78,94.65v29.87c0,3.22,5,3.23,5,0V94.65c0-3.22-5-3.22-5,0Z" transform="translate(-44.23 -26.19)"/><path d="M1225.78,234.06h65c3.21,0,3.22-5,0-5h-65c-3.22,0-3.23,5,0,5Z" transform="translate(-44.23 -26.19)"/><path d="M1289.09,216.81v29.87c0,3.22,5,3.22,5,0V216.81c0-3.22-5-3.23-5,0Z" transform="translate(-44.23 -26.19)"/><path class="cls-1" d="M958.53,347.07H864.21c-6.26,0-10.54-5.07-9.56-11.33L863,282.41a13.78,13.78,0,0,1,13.12-11.34h94.32c6.26,0,10.54,5.08,9.56,11.34l-8.38,53.33A13.77,13.77,0,0,1,958.53,347.07Z" transform="translate(-44.23 -26.19)"/><path d="M791.65,141.27l17.24,75c2.77,12.05,5.29,24.19,8.48,36.14,2.89,10.81,6.72,21.67,13.27,30.84S846.24,300,857.29,303c3.12.83,4.45-4,1.33-4.82-9.14-2.42-16.8-8.47-22.52-15.87-6.57-8.51-10.44-18.72-13.31-29-3.25-11.6-5.66-23.45-8.35-35.19L806,181.34l-9.52-41.4c-.72-3.13-5.54-1.81-4.82,1.33Z" transform="translate(-44.23 -26.19)"/><text class="cls-2" transform="translate(857.85 282.89)"><tspan class="cls-11">L</tspan><tspan x="5.5" y="0">et</tspan><tspan class="cls-20" x="15.48" y="0">t</tspan><tspan x="19.38" y="0">ers</tspan></text><path class="cls-1" d="M1504.7,341.59h-94.32c-6.26,0-10.54-5.07-9.56-11.34l8.38-53.32a13.78,13.78,0,0,1,13.12-11.34h94.32c6.26,0,10.54,5.08,9.56,11.34l-8.38,53.32A13.77,13.77,0,0,1,1504.7,341.59Z" transform="translate(-44.23 -26.19)"/><path d="M973.79,315.67h427.4c3.22,0,3.22-5,0-5H973.79c-3.22,0-3.23,5,0,5Z" transform="translate(-44.23 -26.19)"/><text class="cls-2" transform="translate(1272.71 81.33)">e<tspan class="cls-9" x="6.01" y="0">v</tspan><tspan x="11.66" y="0">e</tspan><tspan class="cls-16" x="17.68" y="0">r</tspan><tspan x="21.9" y="0">y .mp3 needed apa</tspan><tspan class="cls-22" x="117.29" y="0">r</tspan><tspan x="121.5" y="0">t </tspan><tspan x="0" y="14.4">f</tspan><tspan class="cls-9" x="3.5" y="14.4">r</tspan><tspan x="7.31" y="14.4">om let</tspan><tspan class="cls-20" x="39.26" y="14.4">t</tspan><tspan x="43.16" y="14.4">er</tspan><tspan class="cls-23" x="53.1" y="14.4">s</tspan><tspan class="cls-24" x="57.65" y="14.4">’</tspan><tspan x="59.1" y="14.4" xml:space="preserve"> sounds</tspan></text><text class="cls-2" transform="translate(1259.12 205.62)"><tspan class="cls-25">E</tspan><tspan class="cls-26" x="5.82" y="0">v</tspan><tspan x="11.47" y="0">e</tspan><tspan class="cls-19" x="17.48" y="0">r</tspan><tspan x="21.71" y="0">y pi</tspan><tspan class="cls-21" x="39.54" y="0">c</tspan><tspan x="45.07" y="0">tu</tspan><tspan class="cls-9" x="55.65" y="0">r</tspan><tspan x="59.46" y="0">es apa</tspan><tspan class="cls-27" x="91.16" y="0">r</tspan><tspan x="95.37" y="0">t f</tspan><tspan class="cls-9" x="105.39" y="0">r</tspan><tspan x="109.2" y="0">om let</tspan><tspan class="cls-20" x="141.15" y="0">t</tspan><tspan x="145.05" y="0">ers </tspan></text><text class="cls-2" transform="translate(1045.98 263.33)"><tspan class="cls-11">L</tspan><tspan x="5.5" y="0">et</tspan><tspan class="cls-20" x="15.48" y="0">t</tspan><tspan x="19.38" y="0">er f</tspan><tspan class="cls-9" x="35.36" y="0">r</tspan><tspan x="39.17" y="0">om A </tspan><tspan class="cls-20" x="68.19" y="0">t</tspan><tspan x="72.09" y="0">o Z</tspan></text><text class="cls-2" transform="translate(1407.53 279.81)"><tspan class="cls-11">L</tspan><tspan x="5.5" y="0">et</tspan><tspan class="cls-10" x="15.48" y="0">t</tspan><tspan x="19.38" y="0">er</tspan></text><path d="M1520.09,309.86c17.45,3.05,33.25-8.66,42.73-22.33,5.39-7.77,9.37-16.38,13.53-24.83,2.09-4.24,4.22-8.45,6.61-12.53a50.43,50.43,0,0,1,3.56-5.56,8.42,8.42,0,0,1,5-3.08,99.83,99.83,0,0,1,16.7-2.28,138.55,138.55,0,0,1,17.41-.1c3.22.18,3.21-4.82,0-5a141,141,0,0,0-31,1.72,31.77,31.77,0,0,0-6.53,1.52,12.83,12.83,0,0,0-5.49,4.25,81.68,81.68,0,0,0-7.11,11.81c-8.21,15.62-14.52,33.6-29.27,44.45-7.08,5.2-15.85,8.69-24.74,7.14a2.55,2.55,0,0,0-3.07,1.74,2.51,2.51,0,0,0,1.74,3.08Z" transform="translate(-44.23 -26.19)"/><path d="M1519.27,308.08c3.28,4.35,7.3,8.2,10,13a40.66,40.66,0,0,1,4.16,12.24c1.73,8.86,1.71,18,3.49,26.82,1.83,9.09,6,17.37,14,22.56,8.85,5.78,19.95,6.93,30.2,8a308.57,308.57,0,0,0,42.23,1.53c3.21-.1,3.23-5.1,0-5a310.42,310.42,0,0,1-36.85-1c-5.54-.48-11.11-1-16.59-2a48.49,48.49,0,0,1-13.49-4.13,25.12,25.12,0,0,1-9.92-8.67,34.23,34.23,0,0,1-4.45-11.27c-1.94-8.63-2-17.55-3.43-26.26a49.17,49.17,0,0,0-4.37-14.12c-2.7-5.34-7-9.47-10.62-14.19a2.58,2.58,0,0,0-3.42-.9,2.51,2.51,0,0,0-.9,3.42Z" transform="translate(-44.23 -26.19)"/><path d="M1520.82,309.15c5.11,4.53,12.66,3.72,19,3.84l22.49.42,45.48.84,25.49.47c3.22.06,3.22-4.94,0-5l-88.46-1.64c-4-.07-8.11-.1-12.16-.23-2.82-.09-6.08-.26-8.31-2.23-2.4-2.13-5.95,1.4-3.53,3.53Z" transform="translate(-44.23 -26.19)"/><path d="M1626.52,224.29q-.75,12.65-.27,25.3c.12,3.21,5.12,3.22,5,0q-.48-12.65.27-25.3c.19-3.21-4.81-3.2-5,0Z" transform="translate(-44.23 -26.19)"/><path d="M1630.34,297.79a225.59,225.59,0,0,0-1.8,29.16c0,3.22,5,3.23,5,0a225.59,225.59,0,0,1,1.8-29.16,2.51,2.51,0,0,0-2.5-2.5,2.56,2.56,0,0,0-2.5,2.5Z" transform="translate(-44.23 -26.19)"/><path d="M1621,367.57a200.35,200.35,0,0,0,1.33,41.25c.18,1.34,1.9,2.07,3.08,1.75a2.57,2.57,0,0,0,1.75-3.08,193.76,193.76,0,0,1-1.16-39.92,2.52,2.52,0,0,0-2.5-2.5,2.55,2.55,0,0,0-2.5,2.5Z" transform="translate(-44.23 -26.19)"/><text class="cls-2" transform="translate(1606.15 197.71)"><tspan class="cls-28">F</tspan><tspan x="5.53" y="0">ile </tspan><tspan class="cls-29" x="19.73" y="0">c</tspan><tspan x="25.03" y="0">o</tspan><tspan class="cls-17" x="31.62" y="0">n</tspan><tspan x="38.23" y="0">taining :</tspan><tspan x="0" y="14.4">-the let</tspan><tspan class="cls-29" x="35.69" y="14.4">t</tspan><tspan x="39.59" y="14.4">er</tspan><tspan x="0" y="28.8">-let</tspan><tspan class="cls-29" x="16.5" y="28.8">t</tspan><tspan x="20.4" y="28.8">er sound</tspan></text><path class="cls-12" d="M1658.44,300.58h4.36v.88h-3.31v2.68h3.06V305h-3.06v3.66h-1Z" transform="translate(-44.23 -26.19)"/><path class="cls-12" d="M1665.11,301.23a.62.62,0,0,1-.67.65.63.63,0,0,1-.63-.65.64.64,0,0,1,.66-.66A.62.62,0,0,1,1665.11,301.23Zm-1.17,7.44v-5.81h1v5.81Z" transform="translate(-44.23 -26.19)"/><path class="cls-12" d="M1666.75,300.15h1v8.52h-1Z" transform="translate(-44.23 -26.19)"/><path class="cls-12" d="M1670.17,306a1.85,1.85,0,0,0,2,2,3.83,3.83,0,0,0,1.61-.3l.18.76a4.9,4.9,0,0,1-1.94.36,2.7,2.7,0,0,1-2.85-2.93c0-1.75,1-3.13,2.72-3.13a2.46,2.46,0,0,1,2.4,2.73,2.85,2.85,0,0,1,0,.5Zm3.09-.76a1.5,1.5,0,0,0-1.46-1.72,1.75,1.75,0,0,0-1.62,1.72Z" transform="translate(-44.23 -26.19)"/><path class="cls-12" d="M1682.27,308.45a3.87,3.87,0,0,1-1.66.34,2.76,2.76,0,0,1-2.89-3,3,3,0,0,1,3.11-3.08,3.61,3.61,0,0,1,1.47.3l-.24.82a2.39,2.39,0,0,0-1.23-.28,2.19,2.19,0,0,0,0,4.37,3,3,0,0,0,1.29-.29Z" transform="translate(-44.23 -26.19)"/><path class="cls-12" d="M1688.69,305.72a2.84,2.84,0,0,1-2.89,3.08,2.76,2.76,0,0,1-2.78-3,2.83,2.83,0,0,1,2.88-3.08A2.75,2.75,0,0,1,1688.69,305.72Zm-4.6.06c0,1.27.73,2.23,1.76,2.23s1.76-.95,1.76-2.26c0-1-.49-2.23-1.74-2.23S1684.09,304.67,1684.09,305.78Z" transform="translate(-44.23 -26.19)"/><path class="cls-12" d="M1690,304.43c0-.6,0-1.09,0-1.57h.93l.06,1h0a2.14,2.14,0,0,1,1.92-1.09c.8,0,2,.48,2,2.47v3.47h-1.06v-3.35c0-.94-.34-1.72-1.34-1.72a1.51,1.51,0,0,0-1.42,1.08,1.89,1.89,0,0,0-.07.5v3.49h-1Z" transform="translate(-44.23 -26.19)"/><path class="cls-12" d="M1697.91,301.19v1.67h1.51v.8h-1.51v3.13c0,.72.2,1.13.79,1.13a2.15,2.15,0,0,0,.61-.07l0,.79a2.42,2.42,0,0,1-.93.15,1.45,1.45,0,0,1-1.14-.45,2.15,2.15,0,0,1-.41-1.51v-3.17h-.9v-.8h.9v-1.39Z" transform="translate(-44.23 -26.19)"/><path class="cls-12" d="M1703.82,308.67l-.08-.74h0a2.14,2.14,0,0,1-1.77.87,1.66,1.66,0,0,1-1.78-1.67c0-1.4,1.25-2.17,3.5-2.16v-.12a1.2,1.2,0,0,0-1.32-1.34,3,3,0,0,0-1.52.43l-.24-.7a3.63,3.63,0,0,1,1.91-.51c1.78,0,2.21,1.21,2.21,2.37v2.17a8.52,8.52,0,0,0,.09,1.4Zm-.15-3c-1.15,0-2.46.18-2.46,1.31a.94.94,0,0,0,1,1,1.45,1.45,0,0,0,1.4-1,1,1,0,0,0,.06-.34Z" transform="translate(-44.23 -26.19)"/><path class="cls-12" d="M1707.57,301.23a.62.62,0,0,1-.67.65.63.63,0,0,1-.64-.65.65.65,0,0,1,.66-.66A.63.63,0,0,1,1707.57,301.23Zm-1.17,7.44v-5.81h1v5.81Z" transform="translate(-44.23 -26.19)"/><path class="cls-12" d="M1709.2,304.43c0-.6,0-1.09,0-1.57h.94l.06,1h0a2.14,2.14,0,0,1,1.92-1.09c.81,0,2.05.48,2.05,2.47v3.47h-1.05v-3.35c0-.94-.35-1.72-1.35-1.72a1.51,1.51,0,0,0-1.41,1.08,1.55,1.55,0,0,0-.07.5v3.49h-1.06Z" transform="translate(-44.23 -26.19)"/><path class="cls-12" d="M1717,301.23a.66.66,0,0,1-1.31,0,.65.65,0,0,1,.66-.66A.63.63,0,0,1,1717,301.23Zm-1.18,7.44v-5.81h1.06v5.81Z" transform="translate(-44.23 -26.19)"/><path class="cls-12" d="M1718.67,304.43c0-.6,0-1.09-.05-1.57h.94l.06,1h0a2.14,2.14,0,0,1,1.92-1.09c.8,0,2,.48,2,2.47v3.47h-1v-3.35c0-.94-.35-1.72-1.35-1.72a1.51,1.51,0,0,0-1.41,1.08,1.55,1.55,0,0,0-.07.5v3.49h-1.06Z" transform="translate(-44.23 -26.19)"/><path class="cls-12" d="M1730.33,302.86c0,.42,0,.89,0,1.6v3.37a3.36,3.36,0,0,1-.82,2.65,3.12,3.12,0,0,1-2.11.69,3.79,3.79,0,0,1-1.94-.48l.27-.8a3.25,3.25,0,0,0,1.7.46c1.08,0,1.87-.57,1.87-2v-.65h0a2.08,2.08,0,0,1-1.85,1,2.59,2.59,0,0,1-2.47-2.83,2.78,2.78,0,0,1,2.62-3.08,2,2,0,0,1,1.81,1h0l.05-.88Zm-1.09,2.29a1.47,1.47,0,0,0-.06-.48,1.52,1.52,0,0,0-1.48-1.11c-1,0-1.72.85-1.72,2.19,0,1.14.57,2.09,1.71,2.09a1.55,1.55,0,0,0,1.47-1.08,1.81,1.81,0,0,0,.08-.56Z" transform="translate(-44.23 -26.19)"/><path class="cls-12" d="M1735.85,301.19v1.67h1.51v.8h-1.51v3.13c0,.72.21,1.13.8,1.13a2.26,2.26,0,0,0,.61-.07l0,.79a2.39,2.39,0,0,1-.93.15,1.46,1.46,0,0,1-1.14-.45,2.15,2.15,0,0,1-.41-1.51v-3.17h-.9v-.8h.9v-1.39Z" transform="translate(-44.23 -26.19)"/><path class="cls-12" d="M1738.55,300.15h1.06v3.62h0a2,2,0,0,1,.76-.74,2.16,2.16,0,0,1,1.08-.3c.78,0,2,.48,2,2.48v3.46h-1v-3.34c0-.93-.35-1.73-1.34-1.73a1.51,1.51,0,0,0-1.42,1.06,1.26,1.26,0,0,0-.07.5v3.51h-1.06Z" transform="translate(-44.23 -26.19)"/><path class="cls-12" d="M1745.8,306a1.86,1.86,0,0,0,2,2,3.8,3.8,0,0,0,1.61-.3l.18.76a4.84,4.84,0,0,1-1.93.36,2.7,2.7,0,0,1-2.86-2.93c0-1.75,1-3.13,2.73-3.13a2.46,2.46,0,0,1,2.4,2.73,4.36,4.36,0,0,1,0,.5Zm3.1-.76a1.51,1.51,0,0,0-1.47-1.72,1.77,1.77,0,0,0-1.62,1.72Z" transform="translate(-44.23 -26.19)"/><path class="cls-12" d="M1753.88,308.67v-5h-.82v-.8h.82v-.27a2.75,2.75,0,0,1,.67-2A2,2,0,0,1,1756,300a2.28,2.28,0,0,1,.9.17l-.14.81a1.62,1.62,0,0,0-.67-.13c-.9,0-1.13.79-1.13,1.68v.31h1.4v.8h-1.4v5Z" transform="translate(-44.23 -26.19)"/><path class="cls-12" d="M1762.37,305.72a2.84,2.84,0,0,1-2.89,3.08,2.76,2.76,0,0,1-2.78-3,2.83,2.83,0,0,1,2.88-3.08A2.75,2.75,0,0,1,1762.37,305.72Zm-4.6.06c0,1.27.73,2.23,1.76,2.23s1.76-.95,1.76-2.26c0-1-.49-2.23-1.74-2.23S1757.77,304.67,1757.77,305.78Z" transform="translate(-44.23 -26.19)"/><path class="cls-12" d="M1769,305.72a2.84,2.84,0,0,1-2.89,3.08,2.76,2.76,0,0,1-2.78-3,2.83,2.83,0,0,1,2.87-3.08A2.75,2.75,0,0,1,1769,305.72Zm-4.61.06c0,1.27.73,2.23,1.77,2.23s1.76-.95,1.76-2.26c0-1-.49-2.23-1.74-2.23S1764.35,304.67,1764.35,305.78Z" transform="translate(-44.23 -26.19)"/><path class="cls-12" d="M1771.56,301.19v1.67h1.52v.8h-1.52v3.13c0,.72.21,1.13.8,1.13a2.21,2.21,0,0,0,.61-.07l0,.79a2.48,2.48,0,0,1-.94.15,1.46,1.46,0,0,1-1.14-.45,2.15,2.15,0,0,1-.41-1.51v-3.17h-.9v-.8h.9v-1.39Z" transform="translate(-44.23 -26.19)"/><path class="cls-12" d="M1774.27,304.76c0-.75,0-1.35,0-1.9h.94l0,1h0a2.27,2.27,0,0,1,2.06-1.13c1.4,0,2.46,1.19,2.46,2.95,0,2.09-1.27,3.12-2.64,3.12a2.05,2.05,0,0,1-1.79-.91h0V311h-1Zm1,1.54a1.88,1.88,0,0,0,0,.43,1.61,1.61,0,0,0,1.58,1.24c1.11,0,1.76-.91,1.76-2.24,0-1.17-.61-2.16-1.72-2.16a1.68,1.68,0,0,0-1.6,1.31,1.49,1.49,0,0,0-.07.43Z" transform="translate(-44.23 -26.19)"/><path class="cls-12" d="M1781.09,304.67c0-.68,0-1.27,0-1.81h.93l0,1.14h0a1.75,1.75,0,0,1,1.61-1.27,1.39,1.39,0,0,1,.3,0v1a1.88,1.88,0,0,0-.36,0,1.5,1.5,0,0,0-1.42,1.36,3.47,3.47,0,0,0,0,.49v3.1h-1.05Z" transform="translate(-44.23 -26.19)"/><path class="cls-12" d="M1786.24,301.23a.62.62,0,0,1-.67.65.63.63,0,0,1-.64-.65.65.65,0,0,1,.66-.66A.63.63,0,0,1,1786.24,301.23Zm-1.17,7.44v-5.81h1v5.81Z" transform="translate(-44.23 -26.19)"/><path class="cls-12" d="M1787.87,304.43c0-.6,0-1.09,0-1.57h.94l.06,1h0a2.14,2.14,0,0,1,1.92-1.09c.81,0,2,.48,2,2.47v3.47h-1v-3.35c0-.94-.35-1.72-1.35-1.72a1.51,1.51,0,0,0-1.41,1.08,1.55,1.55,0,0,0-.07.5v3.49h-1.06Z" transform="translate(-44.23 -26.19)"/><path class="cls-12" d="M1795.76,301.19v1.67h1.51v.8h-1.51v3.13c0,.72.2,1.13.79,1.13a2.21,2.21,0,0,0,.61-.07l0,.79a2.48,2.48,0,0,1-.94.15,1.46,1.46,0,0,1-1.14-.45,2.15,2.15,0,0,1-.41-1.51v-3.17h-.9v-.8h.9v-1.39Z" transform="translate(-44.23 -26.19)"/><path class="cls-12" d="M1798.31,307.59a2.82,2.82,0,0,0,1.39.42c.77,0,1.13-.39,1.13-.87s-.3-.78-1.08-1.06c-1-.38-1.53-.95-1.53-1.65a1.79,1.79,0,0,1,2-1.7,2.94,2.94,0,0,1,1.43.36l-.27.77a2.18,2.18,0,0,0-1.18-.34c-.63,0-1,.36-1,.79s.35.7,1.11,1c1,.38,1.52.88,1.52,1.75s-.79,1.74-2.17,1.74a3.3,3.3,0,0,1-1.63-.4Z" transform="translate(-44.23 -26.19)"/><path class="cls-12" d="M1811,305.72a2.84,2.84,0,0,1-2.9,3.08,2.76,2.76,0,0,1-2.78-3,2.83,2.83,0,0,1,2.88-3.08A2.75,2.75,0,0,1,1811,305.72Zm-4.61.06c0,1.27.73,2.23,1.76,2.23s1.77-.95,1.77-2.26c0-1-.5-2.23-1.74-2.23S1806.4,304.67,1806.4,305.78Z" transform="translate(-44.23 -26.19)"/><path class="cls-12" d="M1812.45,308.67v-5h-.82v-.8h.82v-.27a2.75,2.75,0,0,1,.67-2,2,2,0,0,1,1.41-.54,2.28,2.28,0,0,1,.9.17l-.14.81a1.62,1.62,0,0,0-.67-.13c-.9,0-1.13.79-1.13,1.68v.31h1.4v.8h-1.4v5Z" transform="translate(-44.23 -26.19)"/><path class="cls-12" d="M1819,306a1.85,1.85,0,0,0,2,2,3.75,3.75,0,0,0,1.6-.3l.18.76a4.8,4.8,0,0,1-1.93.36,2.7,2.7,0,0,1-2.85-2.93c0-1.75,1-3.13,2.72-3.13a2.46,2.46,0,0,1,2.4,2.73,2.85,2.85,0,0,1,0,.5Zm3.09-.76a1.51,1.51,0,0,0-1.46-1.72,1.75,1.75,0,0,0-1.62,1.72Z" transform="translate(-44.23 -26.19)"/><path class="cls-12" d="M1824.81,302.86l1.14,3.26a15.54,15.54,0,0,1,.46,1.49h0c.13-.48.3-1,.49-1.49l1.13-3.26h1.1l-2.28,5.81h-1l-2.21-5.81Z" transform="translate(-44.23 -26.19)"/><path class="cls-12" d="M1830.64,306a1.85,1.85,0,0,0,2,2,3.8,3.8,0,0,0,1.61-.3l.18.76a4.84,4.84,0,0,1-1.93.36,2.7,2.7,0,0,1-2.86-2.93c0-1.75,1-3.13,2.73-3.13a2.46,2.46,0,0,1,2.39,2.73,4.92,4.92,0,0,1,0,.5Zm3.09-.76a1.5,1.5,0,0,0-1.46-1.72,1.76,1.76,0,0,0-1.62,1.72Z" transform="translate(-44.23 -26.19)"/><path class="cls-12" d="M1836.06,304.67c0-.68,0-1.27,0-1.81h.92l0,1.14h0a1.75,1.75,0,0,1,1.61-1.27,1.39,1.39,0,0,1,.3,0v1a1.88,1.88,0,0,0-.36,0,1.5,1.5,0,0,0-1.42,1.36,3.47,3.47,0,0,0,0,.49v3.1h-1Z" transform="translate(-44.23 -26.19)"/><path class="cls-12" d="M1840.67,302.86l1.27,3.43c.13.39.28.84.37,1.19h0c.11-.35.23-.79.37-1.21l1.15-3.41H1845l-1.59,4.14c-.75,2-1.27,3-2,3.63a2.85,2.85,0,0,1-1.29.69l-.27-.89a2.68,2.68,0,0,0,.93-.52,3.08,3.08,0,0,0,.88-1.17.76.76,0,0,0,.09-.25,1.22,1.22,0,0,0-.07-.28l-2.15-5.35Z" transform="translate(-44.23 -26.19)"/><path class="cls-12" d="M1848.89,302.86l1.14,3.26c.19.53.35,1,.47,1.49h0c.14-.48.3-1,.5-1.49l1.12-3.26h1.11l-2.28,5.81h-1l-2.21-5.81Z" transform="translate(-44.23 -26.19)"/><path class="cls-12" d="M1857.42,308.67l-.08-.74h0a2.15,2.15,0,0,1-1.77.87,1.66,1.66,0,0,1-1.78-1.67c0-1.4,1.25-2.17,3.49-2.16v-.12a1.19,1.19,0,0,0-1.32-1.34,2.93,2.93,0,0,0-1.51.43l-.24-.7a3.63,3.63,0,0,1,1.91-.51c1.77,0,2.2,1.21,2.2,2.37v2.17a8.44,8.44,0,0,0,.1,1.4Zm-.16-3c-1.15,0-2.45.18-2.45,1.31a.93.93,0,0,0,1,1,1.43,1.43,0,0,0,1.4-1,1,1,0,0,0,.06-.34Z" transform="translate(-44.23 -26.19)"/><path class="cls-12" d="M1860,304.67c0-.68,0-1.27,0-1.81h.93l0,1.14h0a1.74,1.74,0,0,1,1.61-1.27,1.39,1.39,0,0,1,.3,0v1a1.88,1.88,0,0,0-.36,0,1.49,1.49,0,0,0-1.42,1.36,3.37,3.37,0,0,0,0,.49v3.1h-1Z" transform="translate(-44.23 -26.19)"/><path class="cls-12" d="M1865.14,301.23a.62.62,0,0,1-.67.65.63.63,0,0,1-.64-.65.65.65,0,0,1,.66-.66A.63.63,0,0,1,1865.14,301.23Zm-1.18,7.44v-5.81H1865v5.81Z" transform="translate(-44.23 -26.19)"/><path class="cls-12" d="M1870,308.67l-.09-.74h0a2.14,2.14,0,0,1-1.77.87,1.65,1.65,0,0,1-1.77-1.67c0-1.4,1.24-2.17,3.49-2.16v-.12a1.2,1.2,0,0,0-1.32-1.34,3,3,0,0,0-1.52.43l-.23-.7a3.57,3.57,0,0,1,1.9-.51c1.78,0,2.21,1.21,2.21,2.37v2.17a8.52,8.52,0,0,0,.09,1.4Zm-.16-3c-1.15,0-2.46.18-2.46,1.31a.94.94,0,0,0,1,1,1.45,1.45,0,0,0,1.4-1,1,1,0,0,0,.06-.34Z" transform="translate(-44.23 -26.19)"/><path class="cls-12" d="M1873.78,301.19v1.67h1.51v.8h-1.51v3.13c0,.72.2,1.13.79,1.13a2.15,2.15,0,0,0,.61-.07l0,.79a2.44,2.44,0,0,1-.94.15,1.47,1.47,0,0,1-1.14-.45,2.2,2.2,0,0,1-.4-1.51v-3.17h-.9v-.8h.9v-1.39Z" transform="translate(-44.23 -26.19)"/><path class="cls-12" d="M1878.92,305v.78h-3V305Z" transform="translate(-44.23 -26.19)"/><path class="cls-12" d="M1659.68,315.59v1.67h1.51v.8h-1.51v3.13c0,.72.2,1.13.79,1.13a2.15,2.15,0,0,0,.61-.07l.05.79a2.44,2.44,0,0,1-.94.15,1.44,1.44,0,0,1-1.13-.45,2.15,2.15,0,0,1-.41-1.51v-3.17h-.9v-.8h.9v-1.39Z" transform="translate(-44.23 -26.19)"/><path class="cls-12" d="M1663.55,315.63a.62.62,0,0,1-.67.65.63.63,0,0,1-.63-.65.64.64,0,0,1,.66-.66A.62.62,0,0,1,1663.55,315.63Zm-1.17,7.44v-5.81h1v5.81Z" transform="translate(-44.23 -26.19)"/><path class="cls-12" d="M1670.44,320.12a2.84,2.84,0,0,1-2.89,3.08,2.76,2.76,0,0,1-2.78-3,2.83,2.83,0,0,1,2.88-3.08A2.75,2.75,0,0,1,1670.44,320.12Zm-4.61.06c0,1.27.74,2.23,1.77,2.23s1.76-1,1.76-2.26c0-1-.49-2.23-1.74-2.23S1665.83,319.07,1665.83,320.18Z" transform="translate(-44.23 -26.19)"/><path class="cls-12" d="M1671.78,318.83c0-.6,0-1.09,0-1.57h.93l.06,1h0a2.12,2.12,0,0,1,1.91-1.09c.81,0,2.06.48,2.06,2.47v3.47h-1.06v-3.35c0-.94-.35-1.72-1.34-1.72a1.51,1.51,0,0,0-1.42,1.08,1.55,1.55,0,0,0-.07.5v3.49h-1Z" transform="translate(-44.23 -26.19)"/><path class="cls-12" d="M1678.29,322a2.79,2.79,0,0,0,1.39.42c.77,0,1.13-.39,1.13-.87s-.3-.78-1.08-1.07c-1-.37-1.53-.94-1.53-1.64a1.79,1.79,0,0,1,2-1.7,2.87,2.87,0,0,1,1.42.36l-.26.77a2.22,2.22,0,0,0-1.19-.34c-.62,0-1,.36-1,.79s.35.7,1.11,1c1,.38,1.52.88,1.52,1.75,0,1-.79,1.74-2.17,1.74a3.3,3.3,0,0,1-1.63-.4Z" transform="translate(-44.23 -26.19)"/><path class="cls-12" d="M1691,320.12a2.84,2.84,0,0,1-2.89,3.08,2.76,2.76,0,0,1-2.78-3,2.83,2.83,0,0,1,2.88-3.08A2.74,2.74,0,0,1,1691,320.12Zm-4.6.06c0,1.27.73,2.23,1.76,2.23s1.76-1,1.76-2.26c0-1-.49-2.23-1.73-2.23S1686.38,319.07,1686.38,320.18Z" transform="translate(-44.23 -26.19)"/><path class="cls-12" d="M1692.43,323.07v-5h-.82v-.8h.82V317a2.75,2.75,0,0,1,.67-2,2,2,0,0,1,1.41-.54,2.28,2.28,0,0,1,.9.17l-.14.81a1.62,1.62,0,0,0-.67-.13c-.9,0-1.13.79-1.13,1.68v.31h1.4v.8h-1.4v5Z" transform="translate(-44.23 -26.19)"/><path class="cls-12" d="M1699.64,315.59v1.67h1.51v.8h-1.51v3.13c0,.72.2,1.13.79,1.13a2.21,2.21,0,0,0,.61-.07l0,.79a2.44,2.44,0,0,1-.94.15,1.47,1.47,0,0,1-1.14-.45,2.15,2.15,0,0,1-.4-1.51v-3.17h-.9v-.8h.9v-1.39Z" transform="translate(-44.23 -26.19)"/><path class="cls-12" d="M1702.34,314.55h1.05v3.62h0a2,2,0,0,1,.75-.74,2.22,2.22,0,0,1,1.08-.3c.78,0,2,.48,2,2.48v3.46h-1.06v-3.34c0-.93-.34-1.73-1.34-1.73a1.51,1.51,0,0,0-1.41,1.06,1.25,1.25,0,0,0-.08.5v3.51h-1.05Z" transform="translate(-44.23 -26.19)"/><path class="cls-12" d="M1709.59,320.36a1.85,1.85,0,0,0,2,2,3.75,3.75,0,0,0,1.6-.3l.18.76a4.8,4.8,0,0,1-1.93.36,2.7,2.7,0,0,1-2.85-2.93c0-1.75,1-3.13,2.72-3.13a2.46,2.46,0,0,1,2.4,2.73,2.85,2.85,0,0,1,0,.5Zm3.09-.76a1.51,1.51,0,0,0-1.46-1.72,1.75,1.75,0,0,0-1.62,1.72Z" transform="translate(-44.23 -26.19)"/><path class="cls-12" d="M1717.55,314.55h1.06v8.52h-1.06Z" transform="translate(-44.23 -26.19)"/><path class="cls-12" d="M1721,320.36a1.86,1.86,0,0,0,2,2,3.76,3.76,0,0,0,1.61-.3l.18.76a4.84,4.84,0,0,1-1.93.36,2.69,2.69,0,0,1-2.85-2.93c0-1.75,1-3.13,2.72-3.13a2.46,2.46,0,0,1,2.4,2.73,4.36,4.36,0,0,1,0,.5Zm3.1-.76a1.51,1.51,0,0,0-1.46-1.72,1.75,1.75,0,0,0-1.62,1.72Z" transform="translate(-44.23 -26.19)"/><path class="cls-12" d="M1727.67,315.59v1.67h1.51v.8h-1.51v3.13c0,.72.2,1.13.79,1.13a2.15,2.15,0,0,0,.61-.07l0,.79a2.44,2.44,0,0,1-.94.15,1.44,1.44,0,0,1-1.13-.45,2.15,2.15,0,0,1-.41-1.51v-3.17h-.9v-.8h.9v-1.39Z" transform="translate(-44.23 -26.19)"/><path class="cls-12" d="M1731.64,315.59v1.67h1.51v.8h-1.51v3.13c0,.72.2,1.13.79,1.13a2.15,2.15,0,0,0,.61-.07l0,.79a2.42,2.42,0,0,1-.93.15,1.45,1.45,0,0,1-1.14-.45,2.15,2.15,0,0,1-.41-1.51v-3.17h-.9v-.8h.9v-1.39Z" transform="translate(-44.23 -26.19)"/><path class="cls-12" d="M1734.86,320.36a1.85,1.85,0,0,0,2,2,3.75,3.75,0,0,0,1.6-.3l.18.76a4.8,4.8,0,0,1-1.93.36,2.7,2.7,0,0,1-2.85-2.93c0-1.75,1-3.13,2.72-3.13a2.46,2.46,0,0,1,2.4,2.73,2.85,2.85,0,0,1,0,.5Zm3.09-.76a1.51,1.51,0,0,0-1.46-1.72,1.75,1.75,0,0,0-1.62,1.72Z" transform="translate(-44.23 -26.19)"/><path class="cls-12" d="M1740.28,319.07c0-.68,0-1.27,0-1.81h.93l0,1.14h0a1.74,1.74,0,0,1,1.61-1.27,1.39,1.39,0,0,1,.3,0v1a1.88,1.88,0,0,0-.36,0,1.49,1.49,0,0,0-1.42,1.36,3.37,3.37,0,0,0,0,.49v3.1h-1Z" transform="translate(-44.23 -26.19)"/><path class="cls-12" d="M1661.62,337.47l-.08-.74h0a2.15,2.15,0,0,1-1.77.87,1.66,1.66,0,0,1-1.78-1.67c0-1.4,1.25-2.17,3.49-2.16v-.12a1.19,1.19,0,0,0-1.32-1.34,2.93,2.93,0,0,0-1.51.43l-.24-.69a3.55,3.55,0,0,1,1.91-.52c1.77,0,2.21,1.21,2.21,2.37v2.17a8.52,8.52,0,0,0,.09,1.4Zm-.15-3c-1.16,0-2.46.18-2.46,1.31a.93.93,0,0,0,1,1,1.45,1.45,0,0,0,1.41-1,1.35,1.35,0,0,0,.06-.34Z" transform="translate(-44.23 -26.19)"/><path class="cls-12" d="M1664.19,333.23c0-.6,0-1.09,0-1.57h.94l.06,1h0a2.14,2.14,0,0,1,1.92-1.09c.81,0,2.05.48,2.05,2.47v3.47h-1.05v-3.35c0-.94-.35-1.72-1.35-1.72a1.51,1.51,0,0,0-1.41,1.08,1.55,1.55,0,0,0-.07.5v3.49h-1.06Z" transform="translate(-44.23 -26.19)"/><path class="cls-12" d="M1675.86,329v7c0,.51,0,1.1.05,1.5H1675l0-1h0a2.14,2.14,0,0,1-2,1.14c-1.4,0-2.48-1.19-2.48-3,0-1.93,1.19-3.12,2.6-3.12a2,2,0,0,1,1.76.89h0V329Zm-1,5.07a1.65,1.65,0,0,0,0-.44,1.54,1.54,0,0,0-1.52-1.22c-1.09,0-1.74,1-1.74,2.24s.57,2.15,1.71,2.15a1.59,1.59,0,0,0,1.55-1.26,1.71,1.71,0,0,0,0-.46Z" transform="translate(-44.23 -26.19)"/><path class="cls-12" d="M1681.43,330v1.67H1683v.81h-1.52v3.13c0,.71.21,1.12.8,1.12a2.21,2.21,0,0,0,.61-.07l.05.79a2.48,2.48,0,0,1-.94.15,1.46,1.46,0,0,1-1.14-.45,2.15,2.15,0,0,1-.41-1.51v-3.16h-.9v-.81h.9v-1.39Z" transform="translate(-44.23 -26.19)"/><path class="cls-12" d="M1684.14,329h1v3.62h0a2,2,0,0,1,.76-.74,2.16,2.16,0,0,1,1.08-.3c.78,0,2,.48,2,2.48v3.46H1688v-3.34c0-.93-.35-1.73-1.34-1.73a1.53,1.53,0,0,0-1.42,1.06,1.26,1.26,0,0,0-.07.5v3.51h-1Z" transform="translate(-44.23 -26.19)"/><path class="cls-12" d="M1691.38,334.76a1.86,1.86,0,0,0,2,2,3.8,3.8,0,0,0,1.61-.3l.18.76a4.84,4.84,0,0,1-1.93.36,2.69,2.69,0,0,1-2.85-2.93c0-1.75,1-3.13,2.72-3.13a2.46,2.46,0,0,1,2.4,2.73,4.36,4.36,0,0,1,0,.5Zm3.1-.76a1.5,1.5,0,0,0-1.47-1.71,1.74,1.74,0,0,0-1.61,1.71Z" transform="translate(-44.23 -26.19)"/><path class="cls-12" d="M1699.77,331.66l.77,2.95c.17.65.32,1.25.43,1.85h0c.13-.59.32-1.21.51-1.84l1-3h.89l.9,2.9c.21.7.38,1.31.51,1.9h0a16.15,16.15,0,0,1,.44-1.88l.83-2.92h1l-1.87,5.81h-1l-.89-2.77c-.2-.65-.37-1.23-.51-1.91h0a17.93,17.93,0,0,1-.52,1.92l-.94,2.76h-1l-1.75-5.81Z" transform="translate(-44.23 -26.19)"/><path class="cls-12" d="M1711.35,337.47l-.08-.74h0a2.17,2.17,0,0,1-1.78.87,1.65,1.65,0,0,1-1.77-1.67c0-1.4,1.25-2.17,3.49-2.16v-.12a1.19,1.19,0,0,0-1.32-1.34,2.93,2.93,0,0,0-1.51.43l-.24-.69a3.52,3.52,0,0,1,1.91-.52c1.77,0,2.2,1.21,2.2,2.37v2.17a8.44,8.44,0,0,0,.1,1.4Zm-.16-3c-1.15,0-2.45.18-2.45,1.31a.93.93,0,0,0,1,1,1.43,1.43,0,0,0,1.4-1,1,1,0,0,0,.06-.34Z" transform="translate(-44.23 -26.19)"/><path class="cls-12" d="M1714.21,331.66l1.27,3.43c.13.38.27.84.37,1.19h0c.11-.35.23-.79.38-1.21l1.15-3.41h1.11l-1.58,4.14c-.76,2-1.27,3-2,3.63a2.87,2.87,0,0,1-1.3.69l-.26-.89a2.82,2.82,0,0,0,.92-.52,3.09,3.09,0,0,0,.89-1.17.76.76,0,0,0,.09-.25.94.94,0,0,0-.08-.28l-2.14-5.35Z" transform="translate(-44.23 -26.19)"/><path class="cls-12" d="M1723.29,330v1.67h1.51v.81h-1.51v3.13c0,.71.2,1.12.79,1.12a2.15,2.15,0,0,0,.61-.07l0,.79a2.42,2.42,0,0,1-.93.15,1.46,1.46,0,0,1-1.14-.45,2.15,2.15,0,0,1-.41-1.51v-3.16h-.9v-.81h.9v-1.39Z" transform="translate(-44.23 -26.19)"/><path class="cls-12" d="M1731.17,334.52a2.84,2.84,0,0,1-2.89,3.08,2.76,2.76,0,0,1-2.78-3,2.83,2.83,0,0,1,2.88-3.08A2.75,2.75,0,0,1,1731.17,334.52Zm-4.6.06c0,1.27.73,2.23,1.76,2.23s1.76-.95,1.76-2.26c0-1-.49-2.23-1.74-2.23S1726.57,333.47,1726.57,334.58Z" transform="translate(-44.23 -26.19)"/><path class="cls-12" d="M1740.06,329v7c0,.51,0,1.1,0,1.5h-.95l0-1h0a2.14,2.14,0,0,1-2,1.14c-1.4,0-2.48-1.19-2.48-3,0-1.93,1.19-3.12,2.6-3.12a2,2,0,0,1,1.76.89h0V329Zm-1,5.07a1.65,1.65,0,0,0,0-.44,1.54,1.54,0,0,0-1.52-1.22c-1.09,0-1.74,1-1.74,2.24s.57,2.15,1.71,2.15a1.59,1.59,0,0,0,1.55-1.26,1.71,1.71,0,0,0,0-.46Z" transform="translate(-44.23 -26.19)"/><path class="cls-12" d="M1741.82,333.47c0-.68,0-1.27,0-1.81h.92l0,1.14h0a1.74,1.74,0,0,1,1.61-1.27,1,1,0,0,1,.3,0v1a1.9,1.9,0,0,0-.37,0,1.48,1.48,0,0,0-1.41,1.36,3.37,3.37,0,0,0-.05.49v3.1h-1Z" transform="translate(-44.23 -26.19)"/><path class="cls-12" d="M1748.9,337.47l-.09-.74h0a2.17,2.17,0,0,1-1.78.87,1.65,1.65,0,0,1-1.77-1.67c0-1.4,1.24-2.17,3.49-2.16v-.12a1.19,1.19,0,0,0-1.32-1.34,2.9,2.9,0,0,0-1.51.43l-.24-.69a3.51,3.51,0,0,1,1.9-.52c1.78,0,2.21,1.21,2.21,2.37v2.17a7.49,7.49,0,0,0,.1,1.4Zm-.16-3c-1.15,0-2.46.18-2.46,1.31a.94.94,0,0,0,1,1,1.45,1.45,0,0,0,1.4-1,1,1,0,0,0,.06-.34Z" transform="translate(-44.23 -26.19)"/><path class="cls-12" d="M1751.79,331.66l.77,2.95c.17.65.32,1.25.43,1.85h0c.13-.59.32-1.21.51-1.84l1-3h.89l.9,2.9c.21.7.38,1.31.51,1.9h0a16.15,16.15,0,0,1,.44-1.88l.83-2.92h1l-1.87,5.81h-1l-.89-2.77c-.2-.65-.37-1.23-.51-1.91h0a17.93,17.93,0,0,1-.52,1.92l-.94,2.76h-1l-1.75-5.81Z" transform="translate(-44.23 -26.19)"/><path class="cls-12" d="M1764,330v1.67h1.51v.81H1764v3.13c0,.71.2,1.12.79,1.12a2.21,2.21,0,0,0,.61-.07l0,.79a2.44,2.44,0,0,1-.94.15,1.47,1.47,0,0,1-1.14-.45,2.15,2.15,0,0,1-.4-1.51v-3.16h-.9v-.81h.9v-1.39Z" transform="translate(-44.23 -26.19)"/><path class="cls-12" d="M1766.72,329h1v3.62h0a2,2,0,0,1,.75-.74,2.19,2.19,0,0,1,1.08-.3c.78,0,2,.48,2,2.48v3.46h-1.06v-3.34c0-.93-.34-1.73-1.34-1.73a1.52,1.52,0,0,0-1.41,1.06,1.25,1.25,0,0,0-.08.5v3.51h-1Z" transform="translate(-44.23 -26.19)"/><path class="cls-12" d="M1774,334.76a1.85,1.85,0,0,0,2,2,3.75,3.75,0,0,0,1.6-.3l.18.76a4.8,4.8,0,0,1-1.93.36,2.7,2.7,0,0,1-2.85-2.93c0-1.75,1-3.13,2.72-3.13a2.46,2.46,0,0,1,2.4,2.73,2.85,2.85,0,0,1,0,.5Zm3.09-.76a1.5,1.5,0,0,0-1.46-1.71A1.74,1.74,0,0,0,1774,334Z" transform="translate(-44.23 -26.19)"/><path class="cls-12" d="M1779.39,333.23c0-.6,0-1.09-.05-1.57h.93l0,.94h0a2,2,0,0,1,1.82-1.07,1.74,1.74,0,0,1,1.65,1.16h0a2.42,2.42,0,0,1,.65-.75,1.93,1.93,0,0,1,1.28-.41c.77,0,1.91.5,1.91,2.52v3.42h-1v-3.29c0-1.12-.41-1.79-1.26-1.79a1.38,1.38,0,0,0-1.25,1,1.74,1.74,0,0,0-.08.53v3.59h-1V334c0-.93-.4-1.6-1.21-1.6a1.43,1.43,0,0,0-1.3,1.06,1.4,1.4,0,0,0-.09.51v3.51h-1Z" transform="translate(-44.23 -26.19)"/><text x="-44.23" y="-26.19"/><text class="cls-2" transform="translate(1607.18 370.98)"><tspan class="cls-28">F</tspan><tspan x="5.53" y="0">ile </tspan><tspan class="cls-10" x="19.73" y="0">c</tspan><tspan x="25.03" y="0">o</tspan><tspan class="cls-30" x="31.62" y="0">n</tspan><tspan class="cls-31" x="38.23" y="0">taining a list of </tspan><tspan class="cls-9" x="114.05" y="0">w</tspan><tspan x="122.76" y="0">o</tspan><tspan class="cls-32" x="129.35" y="0">r</tspan><tspan x="133.15" y="0">ds in which the let</tspan><tspan class="cls-10" x="224.11" y="0">t</tspan><tspan x="228.01" y="0">er appears</tspan></text><path class="cls-12" d="M1580.76,388.4l-6,25.58c-1.67,7.08-3.48,14.34-2.39,21.65a19.65,19.65,0,0,0,4.21,9.56c2.38,2.9,5.66,4.93,8.8,6.89a127.24,127.24,0,0,0,21.38,11.2c8.32,3.22,17.2,4.7,26,3.14a2.52,2.52,0,0,0,1.75-3.07,2.56,2.56,0,0,0-3.08-1.75c-14.69,2.58-29-4.89-41.09-12.3a53,53,0,0,1-8.58-5.85,14.46,14.46,0,0,1-4.3-7.48c-1.47-6.32.28-13.05,1.73-19.21l6.37-27c.74-3.13-4.08-4.46-4.82-1.33Z" transform="translate(-44.23 -26.19)"/><path class="cls-12" d="M1630.93,441.06q-.92,21.44-.32,42.91c.09,3.21,5.09,3.23,5,0q-.6-21.45.32-42.91c.14-3.22-4.86-3.22-5,0Z" transform="translate(-44.23 -26.19)"/><text class="cls-2" transform="translate(1616.37 417.29)"><tspan class="cls-33">F</tspan><tspan x="5.47" y="0">older </tspan><tspan class="cls-29" x="34.14" y="0">c</tspan><tspan x="39.44" y="0">o</tspan><tspan class="cls-17" x="46.03" y="0">n</tspan><tspan x="52.64" y="0">taining the p</tspan><tspan class="cls-32" x="116.6" y="0">r</tspan><tspan x="120.41" y="0">onounci</tspan><tspan class="cls-30" x="161.7" y="0">a</tspan><tspan x="167.43" y="0">tion of e</tspan><tspan class="cls-32" x="208.65" y="0">v</tspan><tspan x="214.3" y="0">e</tspan><tspan class="cls-19" x="220.32" y="0">r</tspan><tspan x="224.54" y="0">y </tspan><tspan class="cls-9" x="0" y="14.4">w</tspan><tspan x="8.71" y="14.4">o</tspan><tspan class="cls-9" x="15.3" y="14.4">r</tspan><tspan x="19.1" y="14.4">ds on the list</tspan></text><path class="cls-1" d="M747.05,329H652.73c-6.27,0-10.55-5.07-9.56-11.33l8.38-53.33A13.77,13.77,0,0,1,664.67,253H759c6.26,0,10.54,5.08,9.56,11.34l-8.38,53.33A13.78,13.78,0,0,1,747.05,329Z" transform="translate(-44.23 -26.19)"/><text class="cls-2" transform="translate(633.39 268.89) scale(1.07 1)"><tspan class="cls-34">U</tspan><tspan x="7.69" y="0">ser_D</tspan><tspan class="cls-35" x="36.37" y="0">a</tspan><tspan class="cls-36" x="42.11" y="0">tas</tspan></text><path class="cls-12" d="M587.85,302,643,295.52a2.58,2.58,0,0,0,2.5-2.5,2.51,2.51,0,0,0-2.5-2.5L587.85,297a2.57,2.57,0,0,0-2.5,2.5,2.51,2.51,0,0,0,2.5,2.5Z" transform="translate(-44.23 -26.19)"/><path class="cls-12" d="M760.85,298.05H782.3c3.22,0,3.22-5,0-5H760.85c-3.22,0-3.22,5,0,5Z" transform="translate(-44.23 -26.19)"/><path class="cls-12" d="M782.86,278.7v27.57c0,3.22,5,3.23,5,0V278.7c0-3.22-5-3.22-5,0Z" transform="translate(-44.23 -26.19)"/></svg>